<?xml version="1.0" encoding="UTF-8"?>
<svg width="15px" height="22px" viewBox="0 0 15 22" version="1.1" xmlns="http://www.w3.org/2000/svg" xmlns:xlink="http://www.w3.org/1999/xlink">
    <!-- Generator: Sketch 52.2 (67145) - http://www.bohemiancoding.com/sketch -->
    <title>Location</title>
    <desc>Created with Sketch.</desc>
    <g id="Page-1" stroke="none" stroke-width="1" fill="none" fill-rule="evenodd">
        <g id="Mentor-Profile" transform="translate(-569.000000, -342.000000)" fill="#FF004B" fill-rule="nonzero">
            <g id="Location" transform="translate(569.000000, 342.000000)">
                <path d="M7.5021453,0 C3.3616354,0.00461630452 0.00592507486,3.32328179 8.94183898e-05,7.4192381 C-0.0168548072,12.223619 2.37439903,17.0782857 7.10607403,21.8428571 C7.20525026,21.9432866 7.34115844,21.9999351 7.48308305,22 C7.62500766,21.9999351 7.76091584,21.9432866 7.86009207,21.8428571 C12.6087113,17.0782857 15.0105553,12.2257143 14.9999651,7.4192381 C14.9941351,3.32491501 11.6410009,0.00692373357 7.5021453,0 Z M7.48520108,20.724 C3.20466609,16.288381 1.04215929,11.8150476 1.05910352,7.4192381 C1.12279233,3.94474998 3.98822844,1.16108051 7.50108629,1.16108051 C11.0139441,1.16108051 13.8793803,3.94474998 13.9430691,7.4192381 C13.9515412,11.8150476 11.7805623,16.288381 7.48520108,20.724 Z" id="Shape"></path>
                <circle id="Oval" transform="translate(7.500000, 7.500000) rotate(-13.280000) translate(-7.500000, -7.500000) " cx="7.5" cy="7.5" r="3.5"></circle>
            </g>
        </g>
    </g>
</svg>