<svg xmlns="http://www.w3.org/2000/svg" viewBox="0 0 1482.88 306"><defs><style>.cls-1{fill:#ff004b;}</style></defs><title>call 02Asset 35</title><g id="Layer_2" data-name="Layer 2"><g id="Layer_1-2" data-name="Layer 1"><polygon class="cls-1" points="1478.79 84.56 1469.24 97.43 1459.53 84.56 1456.27 84.56 1455.44 84.56 1429.13 84.56 1429.13 88.19 1438.74 88.19 1438.74 112.75 1442.49 112.75 1442.49 88.19 1455.44 88.19 1455.44 112.75 1459.19 112.75 1459.19 90.52 1469.24 103.24 1479.13 90.53 1479.13 112.75 1482.88 112.75 1482.88 84.56 1478.79 84.56"/><path class="cls-1" d="M489.23,195c0,.35,0,.71-.05,1.05l-.09,1C489.13,196.35,489.2,195.68,489.23,195Z"/><path class="cls-1" d="M513.66,112.75v80.91c0,18.55-5.85,33.72-17.37,45a47.84,47.84,0,0,1-7,6.06,49.72,49.72,0,0,1-10.77,5.82,66.08,66.08,0,0,1-26.63,3.86,66,66,0,0,1-26.62-3.86,49.94,49.94,0,0,1-10.79-5.83,50.59,50.59,0,0,1-7-6.05c-11.5-11.32-17.37-26.49-17.37-45V112.75h24.39v80.09c0,1.06.06,2.12.1,3.18a43.06,43.06,0,0,0,3.7,16.23,11.5,11.5,0,0,0,.7,1.46c.21.42.42.84.68,1.27.1.16.19.33.3.51a7.79,7.79,0,0,0,.58.95,33.35,33.35,0,0,0,4,5.08c7.22,7.6,17.06,10.75,27.39,10.46,10.33.29,20.17-2.85,27.4-10.46a32,32,0,0,0,3.43-4.28q.36-.51.69-1.05c.26-.4.5-.81.72-1.21s.47-.85.67-1.27a13.11,13.11,0,0,0,.71-1.46c.24-.5.46-1,.65-1.52a44.07,44.07,0,0,0,3-14.71c0-.34,0-.7.05-1.05,0-.61,0-1.23,0-1.85V112.75Z"/><path class="cls-1" d="M414.64,197.05c0-.34-.05-.68-.08-1L414.5,195C414.53,195.68,414.6,196.35,414.64,197.05Z"/><path class="cls-1" d="M615.71,110.58c-19.79,0-35.39,6.67-46.48,19.84V112.75H544.84V306h24.39V234.41c11.12,13.34,26.28,20.09,45.13,20.09,20.92,0,37.85-7.06,50.29-21,12.4-13.7,18.69-30.85,18.69-51s-6.29-37.26-18.68-50.95C652.21,117.65,635.74,110.58,615.71,110.58ZM613,133.08c13.78,0,25.13,4.88,33.72,14.49,8.11,9.16,12.23,20.92,12.23,35s-4.12,25.82-12.23,35C638.13,227.13,626.79,232,613,232c-13.94,0-25.09-4.86-33.14-14.46-7.77-9.16-11.71-20.93-11.71-35s3.94-25.84,11.72-35C587.92,137.94,599.07,133.08,613,133.08Z"/><path class="cls-1" d="M735.56,68c-9.29,7.78-14,19.52-14,34.9v9.89H698.24v22h23.31V252.34H746V134.71h31.44v-22H746v-8.27c0-8.74,2.18-15.11,6.49-18.94s11.18-5.86,20.2-5.86h4.75V56.38h-3.66C757.59,56.38,744.75,60.27,735.56,68Z"/><path class="cls-1" d="M853.37,115.11c-11.48,5.31-20,13-25.3,22.87V112.75H803.68V252.34h24.39V190.67c0-15,4.23-28.08,12.57-38.85,8.9-11.34,20.08-16.84,34.18-16.84h4.47v-24.4h-3.38C867.15,110.58,859.56,112.11,853.37,115.11Z"/><path class="cls-1" d="M1007.5,130.68c-11.13-13.34-26.29-20.1-45.13-20.1-20.92,0-37.94,7.07-50.58,21-12.21,13.7-18.4,30.84-18.4,50.95s6.19,37.26,18.41,51c12.63,13.93,29.19,21,49.21,21,19.8,0,35.4-6.66,46.49-19.83v17.67h24.39V112.75H1007.5ZM963.72,232c-13.78,0-25.13-4.88-33.71-14.5-8.11-9.14-12.23-20.91-12.23-35s4.12-25.82,12.23-35c8.59-9.62,19.93-14.5,33.71-14.5,13.94,0,25.09,4.86,33.15,14.46,7.77,9.16,11.71,20.93,11.71,35s-3.94,25.85-11.72,35C988.7,227.28,977.86,232,963.72,232Z"/><path class="cls-1" d="M1236,114.68a49.54,49.54,0,0,0-19.78-4.1,52.05,52.05,0,0,0-18.46,3.11c-12.19,4.57-21.57,12-28,22.15a50.65,50.65,0,0,0-17-17.77,48.74,48.74,0,0,0-26.15-7.49c-16.71,0-29.85,6.11-39.16,18.18v-16h-24.39V252.34h24.39V169.26c0-11.29,3.43-20.27,10.23-26.73,6.44-6.27,14.62-9.45,24.33-9.45,9.24,0,16.64,3.15,22.59,9.6,6,6.82,9,15.67,9,26.31v83.35H1178V169.26c0-11.29,3.43-20.27,10.22-26.73,6.45-6.27,14.63-9.45,24.33-9.45,9.25,0,16.65,3.15,22.6,9.6,6,6.82,9,15.67,9,26.31v83.35h24.39V168.45c0-16.72-5.29-30.86-15.74-42.07A52,52,0,0,0,1236,114.68Z"/><path class="cls-1" d="M1400.46,208.48c-5.64,12.42-15.86,19.81-31.11,22.49-12.57,2.22-23.76.13-33.24-6.22a46.94,46.94,0,0,1-18.53-24.55l61.65-10.87,49.9-8.8-1.77-10c-3.56-20.18-12.64-36-27-47-15.21-11.45-33.27-15.43-53.68-11.83s-36,13.51-46.41,29.49c-9.72,15.26-12.85,33.22-9.29,53.4,3.52,20,12.89,35.78,27.82,46.88,15.38,11.41,33.62,15.35,54.21,11.72,16.2-2.85,29-9.13,38-18.66a67.3,67.3,0,0,0,16.58-30.81ZM1322.9,150c6.66-8.67,16-14.11,27.68-16.17s22.31-.13,31.52,5.72c8.08,5.25,14.07,12.89,17.83,22.73l-86,15.17C1314.09,166.91,1317.1,157.68,1322.9,150Z"/><path class="cls-1" d="M277.32,0,260,1.52c-5.31.46-10.73.89-16,1.3-10.48.82-21.32,1.68-31.92,2.89-7.79.89-8.93,7.86-10,14.6-.16,1-.31,2-.49,2.89l-4.21,22a26.52,26.52,0,0,0,.39,11.6,10.75,10.75,0,0,1,4.53-8.37l.15-.1a2.9,2.9,0,0,1,.41-.27Z"/><path class="cls-1" d="M138.59,136.38l-42.2,92.34-31.14,68.2,192-80.61a623.17,623.17,0,0,0-46.88-87.68,13.44,13.44,0,0,0-14.42-5.78Z"/><path class="cls-1" d="M231.46,43a215.09,215.09,0,0,0-25.54,12.89,9.4,9.4,0,0,0-3.84,11.8L263.32,208.9l9.45-92.81a39.85,39.85,0,0,0-7.64-27.77Z"/><path class="cls-1" d="M0,169.25l79.61,48.82a5.2,5.2,0,0,0,7-1.51,453.3,453.3,0,0,0,35.71-63.72Z"/><path class="cls-1" d="M254.8,226.09a605.45,605.45,0,0,0-85.12,43.59,5.1,5.1,0,0,0-2.43,4.39,5.22,5.22,0,0,0,2.49,4.44L214.57,306Z"/></g></g></svg>