<?xml version="1.0" standalone="no"?>
<!DOCTYPE svg PUBLIC "-//W3C//DTD SVG 20010904//EN"
 "http://www.w3.org/TR/2001/REC-SVG-20010904/DTD/svg10.dtd">
<svg version="1.0" xmlns="http://www.w3.org/2000/svg"
 width="512.000000pt" height="512.000000pt" viewBox="0 0 512.000000 512.000000"
 preserveAspectRatio="xMidYMid meet">
<metadata>
Created by potrace 1.11, written by Peter Selinger 2001-2013
</metadata>
<g transform="translate(0.000000,512.000000) scale(0.100000,-0.100000)"
fill="#000000" stroke="none">
<path d="M4270 5094 c-402 -34 -700 -64 -740 -74 -39 -11 -79 -47 -103 -96
-23 -45 -119 -566 -119 -649 -1 -38 3 -81 7 -95 7 -23 9 -22 21 20 8 26 27 59
46 77 18 17 314 212 658 433 344 222 627 404 629 406 9 8 -138 0 -399 -22z"/>
<path d="M3684 4256 c-249 -124 -276 -146 -282 -234 -4 -58 -3 -60 498 -1218
276 -637 508 -1170 515 -1184 l13 -25 6 35 c3 19 40 373 82 785 86 852 88 912
39 1045 -37 100 -55 127 -363 542 -166 224 -271 358 -282 358 -9 0 -111 -47
-226 -104z"/>
<path d="M2757 2936 l-429 -102 -618 -1354 c-341 -745 -618 -1356 -616 -1357
2 -2 457 187 1012 421 555 233 1270 533 1589 666 319 134 584 247 589 251 31
27 -388 850 -658 1294 -112 184 -139 215 -220 255 -101 51 -148 46 -649 -74z"/>
<path d="M992 2415 c-541 -73 -986 -136 -989 -139 -7 -6 -12 -3 710 -445 647
-397 649 -399 699 -355 74 66 434 693 572 997 35 75 35 77 13 76 -12 -1 -465
-61 -1005 -134z"/>
<path d="M4185 1241 c-286 -125 -779 -370 -964 -480 -25 -15 -98 -58 -161 -96
-150 -88 -160 -98 -160 -149 0 -23 6 -48 13 -57 13 -18 712 -450 737 -456 11
-2 98 160 338 636 177 351 322 642 322 645 0 10 -11 6 -125 -43z"/>
</g>
</svg>
