<svg xmlns="http://www.w3.org/2000/svg" width="100" height="96" viewBox="0 0 100 96">
    <g fill="#FF004B" fill-rule="nonzero">
        <path d="M91 30.504c-.015-10.548-8.7-19.16-19.57-19.404a1.514 1.514 0 0 0-1.08 0C59.562 11.444 51 20.027 51 30.499c0 10.471 8.562 19.055 19.35 19.399.172.065.355.1.54.102.185 0 .368-.033.54-.097C82.298 49.66 90.982 41.05 91 30.504zm-3.102-1.47h-5.67c-.225-5.414-1.685-10.147-3.91-13.39 5.401 2.516 9.04 7.602 9.58 13.39zM69.383 14.366v14.668h-6.601c.335-7.2 3.105-13.23 6.601-14.673v.005zm0 17.613v14.668c-3.496-1.443-6.266-7.476-6.601-14.668h6.601zm3.03 14.742V31.973h6.78c-.34 7.319-3.2 13.435-6.78 14.742v.006zm0-17.681V14.293c3.58 1.31 6.44 7.42 6.78 14.741l-6.78.006zm-8.754-13.396c-2.225 3.243-3.685 7.976-3.91 13.39h-5.67c.54-5.788 4.18-10.874 9.58-13.39zm-9.582 16.33h5.67c.224 5.414 1.685 10.147 3.91 13.39-5.402-2.516-9.04-7.602-9.58-13.39zm24.238 13.39c2.225-3.243 3.686-7.976 3.91-13.39h5.67c-.54 5.788-4.179 10.874-9.58 13.39z"/>
        <path d="M83.938 72.82a6.64 6.64 0 0 0-3.228-4.825L67.78 60.319a4.47 4.47 0 0 0-5.25.48l-4.571 4.013C47.42 60.204 40.2 53.107 35.873 43.116l3.46-3.748a4.27 4.27 0 0 0 .6-4.976l-7.154-12.91a6.808 6.808 0 0 0-4.982-3.41 6.898 6.898 0 0 0-5.778 1.847l-8.983 8.658a6.539 6.539 0 0 0-2.006 5.352c1.032 10.748 8.589 23.919 20.19 35.241 5.55 5.422 11.728 10.08 17.867 13.473 6.732 3.722 13.181 5.854 19.173 6.334a6.815 6.815 0 0 0 5.492-2.062l8.38-8.625a6.545 6.545 0 0 0 1.806-5.47zM36.315 36.69l-4.31 4.692a1.96 1.96 0 0 0-.384 2.085c4.75 11.833 13.48 20.419 25.94 25.53a2.08 2.08 0 0 0 2.15-.354l5.543-4.87c.113-.098.28-.113.41-.036l12.93 7.676a2.64 2.64 0 0 1 .561 4.131l-8.37 8.623a2.745 2.745 0 0 1-2.197.823C46.652 83.23 17.165 54.87 15.093 33.561a2.6 2.6 0 0 1 .798-2.135l8.99-8.66a2.766 2.766 0 0 1 2.316-.738 2.73 2.73 0 0 1 1.995 1.365l7.168 12.91c.069.126.051.28-.045.388z"/>
    </g>
</svg>
