<svg xmlns="http://www.w3.org/2000/svg" width="65" height="113" viewBox="0 0 65 113">
    <g fill="#FF004B" fill-rule="nonzero">
        <path d="M62.541 31.092h-2.165l-2.719-7.735c-.34-.95-1.276-1.59-2.332-1.594H9.653c-1.056.004-1.993.645-2.332 1.594l-2.715 7.735H2.459C1.099 31.1 0 32.15 0 33.44v14.307c.009 1.29 1.114 2.333 2.474 2.333h1.708l4.686 45.262 1.617 15.554c.131 1.19 1.185 2.097 2.447 2.104h39.117c1.262-.007 2.316-.914 2.447-2.104l6.338-60.828h1.707c1.355-.008 2.45-1.048 2.459-2.333v-14.31c-.008-1.285-1.104-2.325-2.459-2.333zM11.429 26.43h42.127l1.64 4.663H9.785l1.643-4.663zm38.394 81.902H15.162l-1.38-13.206h37.426l-1.385 13.206zm4.67-44.84H10.501L9.103 50.066H55.89l-1.398 13.427zm5.59-18.089H4.902v-9.643h55.18v9.643zM27.242 16.74a1.37 1.37 0 0 1-1.121-.562c-.092-.11-2.114-3.086-.092-7.006.173-.437.601-.745 1.103-.795.501-.05.99.168 1.26.56.272.393.277.894.016 1.291-1.368 2.645-.128 4.551-.075 4.63.263.376.281.854.05 1.246-.232.393-.678.637-1.162.637h.02zM39.662 17.578c-.505 0-.976-.221-1.257-.591-.1-.136-2.449-3.357-.094-7.568 1.39-2.37 1.55-5.154.443-7.637-.29-.681.1-1.441.872-1.697.773-.257 1.635.088 1.925.77 1.39 3.162 1.19 6.697-.55 9.722-1.574 2.816-.147 4.879-.083 4.965.301.405.325.924.063 1.35-.263.425-.77.689-1.32.686zM33.84 18.415c-.548 0-1.06-.229-1.364-.609-.114-.14-2.748-3.491-.099-7.817l.066-.11c.534-.866.995-1.614.454-3.111-.168-.463-.026-.966.373-1.319s.994-.502 1.56-.39c.568.11 1.02.464 1.188.927.922 2.543-.036 4.1-.67 5.132l-.065.103c-1.753 2.865-.158 4.998-.088 5.086.499.622.297 1.462-.45 1.877-.268.149-.582.229-.904.23z"/>
    </g>
</svg>
