<svg width="260" height="260" viewBox="0 0 260 260" fill="none" xmlns="http://www.w3.org/2000/svg">
<rect width="260" height="260" rx="60" fill="black"/>
<path d="M130.5 45C82.7232 45 44 83.7304 44 131.5C44 179.27 82.7232 218 130.5 218C178.277 218 217 179.27 217 131.5C217 83.7304 178.277 45 130.5 45ZM201.754 127.471C183.193 124.429 166.124 124.263 150.554 126.944C148.795 122.886 146.971 118.835 145.025 114.834C161.676 107.626 175.048 97.8371 185.017 85.4099C194.748 96.9 200.853 111.497 201.754 127.471ZM174.06 74.9795C165.374 86.1812 153.386 95.0403 138.119 101.506C130.796 88.0914 122.419 75.0083 112.977 62.3072C118.592 60.8872 124.445 60.0438 130.5 60.0438C146.899 60.0438 161.986 65.6591 174.06 74.9795ZM98.2571 67.8216C107.851 80.3785 116.357 93.3247 123.753 106.61C106.237 111.764 85.3254 114.409 61.1558 114.575C66.144 94.1392 79.9047 77.142 98.2571 67.8216V67.8216ZM59.0438 131.5L59.1375 129.655C86.8824 129.619 110.814 126.425 130.86 120.125C132.54 123.549 134.147 126.988 135.69 130.448C111.326 138.067 91.2506 153.673 75.5941 177.158C65.2718 164.766 59.0438 148.85 59.0438 131.5V131.5ZM86.6445 187.797C100.838 165.538 118.952 151.049 141.413 144.352C148.103 161.797 153.012 179.745 156.14 198.127C131.999 207.433 106.021 202.927 86.6445 187.797ZM170.16 190.897C167.003 173.935 162.375 157.356 156.32 141.181C169.843 139.271 184.721 139.768 201.005 142.594C197.855 162.676 186.386 180.019 170.16 190.897Z" fill="white"/>
</svg>
