<svg width="260" height="260" viewBox="0 0 260 260" fill="none" xmlns="http://www.w3.org/2000/svg">
<rect width="260" height="260" rx="60" fill="black"/>
<path d="M129.5 44C78.9768 44 38 84.9691 38 135.5C38 175.928 64.2147 210.225 100.578 222.326C105.146 223.172 106.625 220.336 106.625 217.926V200.892C81.1727 206.428 75.8734 190.095 75.8734 190.095C71.7101 179.519 65.7093 176.705 65.7093 176.705C57.4056 171.025 66.3421 171.147 66.3421 171.147C75.5303 171.787 80.3645 180.579 80.3645 180.579C88.5233 194.563 101.768 190.522 106.991 188.181C107.807 182.272 110.178 178.231 112.801 175.951C92.4806 173.625 71.1154 165.779 71.1154 130.727C71.1154 120.73 74.6915 112.572 80.5399 106.167C79.5944 103.856 76.4605 94.5461 81.432 81.9496C81.432 81.9496 89.118 79.4944 106.602 91.3284C113.899 89.3001 121.723 88.286 129.5 88.2479C137.277 88.286 145.108 89.3001 152.421 91.3284C169.89 79.4944 177.56 81.9496 177.56 81.9496C182.539 94.5538 179.406 103.864 178.46 106.167C184.331 112.572 187.877 120.738 187.877 130.727C187.877 165.87 166.474 173.61 146.1 175.874C149.378 178.711 152.375 184.277 152.375 192.817V217.926C152.375 220.359 153.839 223.218 158.483 222.318C194.816 210.202 221 175.913 221 135.5C221 84.9691 180.031 44 129.5 44Z" fill="white"/>
</svg>
