<svg fill="none" height="357" viewBox="0 0 1440 357" width="1440" xmlns="http://www.w3.org/2000/svg" xmlns:xlink="http://www.w3.org/1999/xlink"><mask id="a" height="357" maskUnits="userSpaceOnUse" width="1440" x="0" y="0"><path d="m0 0h1440v357h-1440z" fill="#1b3371"/></mask><path d="m0 0h1440v357h-1440z" fill="#1b3371"/><g mask="url(#a)" stroke="#ffbcce"><path d="m70.1055-9c0 38.6855-31.1418 70-69.500031 70-38.358269 0-69.499969-31.3145-69.499969-70s31.1417-70 69.499969-70c38.358231 0 69.500031 31.3145 69.500031 70z" stroke-width="8"/><path d="m109.605 327.5c0 37.52-30.6328 68-68.4995 68-37.86675 0-68.5-30.48-68.5-68s30.63325-68 68.5-68c37.8667 0 68.4995 30.48 68.4995 68z" stroke-width="11"/><path d="m748.605 80c0 37.867-30.479 68.5-68 68.5-37.52 0-68-30.633-68-68.5 0-37.8667 30.48-68.5 68-68.5 37.521 0 68 30.6333 68 68.5z" stroke-width="11"/><g stroke-width="8"><path d="m1379 350.5c0 24.616-19.74 44.5-44 44.5s-44-19.884-44-44.5 19.74-44.5 44-44.5 44 19.884 44 44.5z"/><path d="m1177.93 267.669c-25.34 6.79-51.33-8.032-58.05-33.104"/><path d="m1235.87 40c.77-1.3333 2.7-1.3333 3.47 0l50.66 87.75c.77 1.333-.19 3-1.73 3h-101.33c-1.54 0-2.5-1.667-1.73-3z"/><path d="m535.167 65.1662c1.145 1.03.745 2.9125-.719 3.3885l-96.361 31.3282c-1.464.4761-2.894-.8114-2.574-2.3174l21.049-99.11455c.32-1.50601 2.15-2.10104 3.294-1.07105z"/></g><path d="m824.447 348.244c.122.068.167.129.192.173.034.059.063.147.065.256s-.024.198-.056.258c-.024.045-.068.108-.187.179l-86.938 52.044c-.119.071-.195.079-.246.079-.068 0-.159-.019-.254-.072-.095-.052-.159-.12-.195-.177-.027-.044-.06-.113-.062-.252l-1.602-101.312c-.002-.139.029-.209.054-.253.034-.059.096-.128.189-.184s.184-.077.251-.08c.051-.001.128.005.249.072z" stroke-width="11"/></g></svg>