<svg width="260" height="260" viewBox="0 0 260 260" fill="none" xmlns="http://www.w3.org/2000/svg">
<rect width="260" height="260" rx="60" fill="black"/>
<path d="M210 85.9166C204.297 88.449 198.168 90.1545 191.736 90.9233C198.304 86.989 203.348 80.7549 205.718 73.3257C199.576 76.9692 192.769 79.6179 185.523 81.0456C179.73 74.8632 171.457 71 162.312 71C141.781 71 126.694 90.161 131.331 110.052C104.91 108.728 81.4792 96.0656 65.7919 76.8207C57.4606 91.1171 61.4713 109.819 75.6279 119.29C70.4225 119.122 65.5142 117.694 61.2323 115.311C60.8835 130.046 71.4429 143.832 86.7363 146.901C82.2606 148.116 77.3588 148.4 72.3729 147.444C76.4158 160.08 88.1571 169.273 102.081 169.531C88.7125 180.016 71.8692 184.7 55 182.71C69.0727 191.735 85.7933 197 103.748 197C162.79 197 196.147 147.121 194.132 102.384C200.345 97.8939 205.738 92.2929 210 85.9166V85.9166Z" fill="white"/>
</svg>
